<svg version="1.1" id="Layer_1" xmlns="http://www.w3.org/2000/svg" xmlns:xlink="http://www.w3.org/1999/xlink" x="0px" y="0px"
	 width="100%" viewBox="0 0 591 133" enable-background="new 0 0 591 133" xml:space="preserve">
<path fill="#FEFEFE" opacity="1.000000" stroke="none" 
	d="
M391.000000,134.000000 
	C260.666656,134.000000 130.833328,134.000000 1.000000,134.000000 
	C1.000000,89.666664 1.000000,45.333332 1.000000,1.000000 
	C198.000000,1.000000 395.000000,1.000000 592.000000,1.000000 
	C592.000000,45.333332 592.000000,89.666664 592.000000,134.000000 
	C525.166687,134.000000 458.333344,134.000000 391.000000,134.000000 
M222.614029,71.884483 
	C224.868668,74.974205 227.094177,78.085739 229.386200,81.147461 
	C231.644653,84.164345 233.814407,84.227509 236.040070,80.988220 
	C237.916748,78.256851 240.000946,75.667976 241.995850,73.017975 
	C248.404358,64.504913 254.814056,55.992744 261.223297,47.480236 
	C261.559021,47.601738 261.894745,47.723244 262.230469,47.844746 
	C262.230469,67.886024 262.230469,87.927307 262.230469,107.786316 
	C267.844055,107.786316 272.919373,107.786316 277.831360,107.786316 
	C277.831360,79.335732 277.831360,51.267597 277.831360,22.926510 
	C272.354340,22.926510 267.199432,22.734467 262.075317,23.047190 
	C260.597961,23.137352 258.811554,24.371647 257.849396,25.611206 
	C253.878891,30.726423 250.186264,36.056614 246.361862,41.286129 
	C241.997238,47.254387 237.601089,53.199600 232.992935,59.461552 
	C224.523651,47.867634 216.519089,36.845493 208.410538,25.900404 
	C207.511322,24.686638 206.061783,23.138239 204.794098,23.067915 
	C199.214844,22.758417 193.608658,22.934315 188.152710,22.934315 
	C188.152710,51.703995 188.152710,79.779388 188.152710,107.797974 
	C193.538147,107.797974 198.592743,107.797974 204.213516,107.797974 
	C204.213516,87.470078 204.213516,67.506340 204.213516,46.642853 
	C210.629150,55.444462 216.409271,63.374218 222.614029,71.884483 
M329.487854,108.075356 
	C332.652802,108.038795 335.836273,108.208458 338.979065,107.925667 
	C347.263855,107.180206 355.198517,105.210075 360.615265,98.276840 
	C369.448395,86.970779 366.139648,72.725876 352.603516,63.638828 
	C359.933319,59.622757 363.506500,53.545582 362.654816,45.235874 
	C361.250061,31.530323 352.528137,23.484934 337.818878,23.068378 
	C323.501556,22.662920 309.166138,22.889322 294.838654,22.869713 
	C294.244263,22.868900 293.649414,23.187435 293.247192,23.302265 
	C293.247192,51.667591 293.247192,79.739609 293.247192,108.075371 
	C305.209290,108.075371 316.850708,108.075371 329.487854,108.075356 
M545.829773,90.225288 
	C550.309326,82.189568 552.211548,73.593872 552.045776,64.381729 
	C551.431152,30.235580 520.485840,13.183827 490.960297,24.271563 
	C473.462067,30.842669 466.130157,45.251957 464.557526,63.147202 
	C462.801147,83.133644 473.943848,101.650185 492.063324,107.543839 
	C510.913666,113.675186 534.028809,109.743530 545.829773,90.225288 
M155.762665,92.100998 
	C158.054031,96.390999 160.221222,100.755066 162.709702,104.927513 
	C163.492828,106.240578 165.077789,107.830971 166.399460,107.931534 
	C171.157822,108.293587 175.960464,108.073753 181.454483,108.073753 
	C180.508667,105.879036 179.827286,104.239792 179.100754,102.620819 
	C169.052979,80.231171 158.927017,57.876251 148.974426,35.444405 
	C143.299866,22.654678 143.426453,22.700817 129.438812,22.749331 
	C126.450745,22.759693 125.107750,23.795801 123.940475,26.439301 
	C115.897690,44.653580 107.670914,62.786537 99.528252,80.956825 
	C95.557533,89.817474 91.640472,98.702164 87.575638,107.853973 
	C88.951485,107.965881 89.619270,107.964928 90.266029,108.081070 
	C100.694366,109.953644 108.211609,107.113930 110.526543,95.691338 
	C111.185333,92.440666 113.421265,91.968300 116.444290,92.006813 
	C129.256592,92.170036 142.072159,92.077545 155.762665,92.100998 
M396.066162,45.555603 
	C386.783569,66.237625 377.500977,86.919655 368.141876,107.772179 
	C374.182953,107.772179 380.345642,109.309547 384.880096,107.254387 
	C388.130463,105.781212 388.942963,99.339226 391.372253,95.444061 
	C392.354553,93.868988 394.710327,92.295555 396.500458,92.224907 
	C404.975739,91.890427 413.571075,92.894066 421.935669,91.876068 
	C433.355499,90.486237 441.063232,93.251358 443.464844,105.497215 
	C443.663574,106.510582 445.382507,107.897812 446.454926,107.953232 
	C451.492828,108.213539 456.551666,108.069023 462.008087,108.069023 
	C461.122467,105.862091 460.564178,104.316856 459.893280,102.822159 
	C449.775421,80.281509 439.001343,58.004772 429.812073,35.092255 
	C425.828278,25.159134 420.762482,20.969801 410.270721,22.672022 
	C407.280243,23.157200 405.599884,23.773462 404.438416,26.666891 
	C401.968414,32.819988 399.102844,38.814285 396.066162,45.555603 
M86.292274,27.541058 
	C86.218468,26.101028 86.144653,24.660997 86.070099,23.206438 
	C62.537601,23.206438 39.370632,23.206438 16.246147,23.206438 
	C16.246147,28.014746 16.246147,32.449520 16.246147,37.365387 
	C25.215603,37.365387 33.952446,37.365387 43.243053,37.365387 
	C43.243053,61.201801 43.243053,84.555168 43.243053,107.690483 
	C48.896614,107.690483 53.971790,107.690483 59.495506,107.690483 
	C59.495506,84.105286 59.495506,60.899014 59.495506,37.096153 
	C68.671349,37.096153 77.389442,37.096153 86.292450,37.096153 
	C86.292450,33.836990 86.292450,31.184343 86.292274,27.541058 
z"/>
<path fill="#3A445B" opacity="1.000000" stroke="none" 
	d="
M222.401703,71.594223 
	C216.409271,63.374218 210.629150,55.444462 204.213516,46.642853 
	C204.213516,67.506340 204.213516,87.470078 204.213516,107.797974 
	C198.592743,107.797974 193.538147,107.797974 188.152710,107.797974 
	C188.152710,79.779388 188.152710,51.703995 188.152710,22.934315 
	C193.608658,22.934315 199.214844,22.758417 204.794098,23.067915 
	C206.061783,23.138239 207.511322,24.686638 208.410538,25.900404 
	C216.519089,36.845493 224.523651,47.867634 232.992935,59.461552 
	C237.601089,53.199600 241.997238,47.254387 246.361862,41.286129 
	C250.186264,36.056614 253.878891,30.726423 257.849396,25.611206 
	C258.811554,24.371647 260.597961,23.137352 262.075317,23.047190 
	C267.199432,22.734467 272.354340,22.926510 277.831360,22.926510 
	C277.831360,51.267597 277.831360,79.335732 277.831360,107.786316 
	C272.919373,107.786316 267.844055,107.786316 262.230469,107.786316 
	C262.230469,87.927307 262.230469,67.886024 262.230469,47.844746 
	C261.894745,47.723244 261.559021,47.601738 261.223297,47.480236 
	C254.814056,55.992744 248.404358,64.504913 241.995850,73.017975 
	C240.000946,75.667976 237.916748,78.256851 236.040070,80.988220 
	C233.814407,84.227509 231.644653,84.164345 229.386200,81.147461 
	C227.094177,78.085739 224.868668,74.974205 222.401703,71.594223 
z"/>
<path fill="#3A445B" opacity="1.000000" stroke="none" 
	d="
M328.989990,108.075363 
	C316.850708,108.075371 305.209290,108.075371 293.247192,108.075371 
	C293.247192,79.739609 293.247192,51.667591 293.247192,23.302265 
	C293.649414,23.187435 294.244263,22.868900 294.838654,22.869713 
	C309.166138,22.889322 323.501556,22.662920 337.818878,23.068378 
	C352.528137,23.484934 361.250061,31.530323 362.654816,45.235874 
	C363.506500,53.545582 359.933319,59.622757 352.603516,63.638828 
	C366.139648,72.725876 369.448395,86.970779 360.615265,98.276840 
	C355.198517,105.210075 347.263855,107.180206 338.979065,107.925667 
	C335.836273,108.208458 332.652802,108.038795 328.989990,108.075363 
M336.955841,92.961052 
	C339.022675,92.374893 341.175537,91.993111 343.140961,91.165993 
	C350.350342,88.132042 351.585938,80.751907 345.600800,75.712875 
	C343.641266,74.063103 341.049164,72.255020 338.680328,72.159645 
	C328.832733,71.763206 318.959930,71.993004 309.053253,71.993004 
	C309.053253,78.719688 309.053253,85.648972 309.053253,92.997833 
	C318.194519,92.997833 327.125214,92.997833 336.955841,92.961052 
M321.506226,37.285965 
	C317.401672,37.285965 313.297119,37.285965 309.094666,37.285965 
	C309.094666,44.147076 309.094666,50.381710 309.094666,56.894836 
	C318.465942,56.894836 327.576172,56.993931 336.680908,56.814308 
	C338.585602,56.776730 340.573700,55.926838 342.342834,55.075932 
	C346.371948,53.138035 348.448517,48.286819 345.936279,44.672272 
	C343.942810,41.804119 340.610016,38.949802 337.347778,38.098949 
	C332.646790,36.872856 327.470734,37.468094 321.506226,37.285965 
z"/>
<path fill="#3C465C" opacity="1.000000" stroke="none" 
	d="
M545.613892,90.522537 
	C534.028809,109.743530 510.913666,113.675186 492.063324,107.543839 
	C473.943848,101.650185 462.801147,83.133644 464.557526,63.147202 
	C466.130157,45.251957 473.462067,30.842669 490.960297,24.271563 
	C520.485840,13.183827 551.431152,30.235580 552.045776,64.381729 
	C552.211548,73.593872 550.309326,82.189568 545.613892,90.522537 
M498.918549,93.918564 
	C506.543640,95.900887 514.112183,95.919731 521.333191,92.520844 
	C532.446411,87.289917 538.432129,73.161301 535.726257,59.241608 
	C533.838623,49.530926 529.240784,41.718018 519.724792,37.933117 
	C499.175659,29.759932 478.711029,44.724514 480.305786,66.782677 
	C481.185455,78.950195 485.619049,89.074951 498.918549,93.918564 
z"/>
<path fill="#3A445B" opacity="1.000000" stroke="none" 
	d="
M155.324585,92.089752 
	C142.072159,92.077545 129.256592,92.170036 116.444290,92.006813 
	C113.421265,91.968300 111.185333,92.440666 110.526543,95.691338 
	C108.211609,107.113930 100.694366,109.953644 90.266029,108.081070 
	C89.619270,107.964928 88.951485,107.965881 87.575638,107.853973 
	C91.640472,98.702164 95.557533,89.817474 99.528252,80.956825 
	C107.670914,62.786537 115.897690,44.653580 123.940475,26.439301 
	C125.107750,23.795801 126.450745,22.759693 129.438812,22.749331 
	C143.426453,22.700817 143.299866,22.654678 148.974426,35.444405 
	C158.927017,57.876251 169.052979,80.231171 179.100754,102.620819 
	C179.827286,104.239792 180.508667,105.879036 181.454483,108.073753 
	C175.960464,108.073753 171.157822,108.293587 166.399460,107.931534 
	C165.077789,107.830971 163.492828,106.240578 162.709702,104.927513 
	C160.221222,100.755066 158.054031,96.390999 155.324585,92.089752 
M129.498627,52.001541 
	C125.964874,60.157810 122.431114,68.314079 118.822128,76.643990 
	C129.467667,76.643990 139.601517,76.643990 150.184662,76.643990 
	C144.901672,64.555611 139.823364,52.935600 134.488922,40.729465 
	C132.771011,44.667210 131.317154,47.999672 129.498627,52.001541 
z"/>
<path fill="#3A445B" opacity="1.000000" stroke="none" 
	d="
M396.232788,45.214638 
	C399.102844,38.814285 401.968414,32.819988 404.438416,26.666891 
	C405.599884,23.773462 407.280243,23.157200 410.270721,22.672022 
	C420.762482,20.969801 425.828278,25.159134 429.812073,35.092255 
	C439.001343,58.004772 449.775421,80.281509 459.893280,102.822159 
	C460.564178,104.316856 461.122467,105.862091 462.008087,108.069023 
	C456.551666,108.069023 451.492828,108.213539 446.454926,107.953232 
	C445.382507,107.897812 443.663574,106.510582 443.464844,105.497215 
	C441.063232,93.251358 433.355499,90.486237 421.935669,91.876068 
	C413.571075,92.894066 404.975739,91.890427 396.500458,92.224907 
	C394.710327,92.295555 392.354553,93.868988 391.372253,95.444061 
	C388.942963,99.339226 388.130463,105.781212 384.880096,107.254387 
	C380.345642,109.309547 374.182953,107.772179 368.141876,107.772179 
	C377.500977,86.919655 386.783569,66.237625 396.232788,45.214638 
M419.213348,50.240131 
	C417.974182,47.428265 416.735016,44.616398 415.041779,40.774181 
	C409.577850,53.324776 404.538391,64.900345 399.374878,76.760818 
	C410.187439,76.760818 420.241394,76.760818 430.794769,76.760818 
	C426.953949,67.882484 423.278809,59.387180 419.213348,50.240131 
z"/>
<path fill="#39435A" opacity="1.000000" stroke="none" 
	d="
M86.292358,28.036377 
	C86.292450,31.184343 86.292450,33.836990 86.292450,37.096153 
	C77.389442,37.096153 68.671349,37.096153 59.495506,37.096153 
	C59.495506,60.899014 59.495506,84.105286 59.495506,107.690483 
	C53.971790,107.690483 48.896614,107.690483 43.243053,107.690483 
	C43.243053,84.555168 43.243053,61.201801 43.243053,37.365387 
	C33.952446,37.365387 25.215603,37.365387 16.246147,37.365387 
	C16.246147,32.449520 16.246147,28.014746 16.246147,23.206438 
	C39.370632,23.206438 62.537601,23.206438 86.070099,23.206438 
	C86.144653,24.660997 86.218468,26.101028 86.292358,28.036377 
z"/>
<path fill="#FDFDFE" opacity="1.000000" stroke="none" 
	d="
M336.505859,92.979446 
	C327.125214,92.997833 318.194519,92.997833 309.053253,92.997833 
	C309.053253,85.648972 309.053253,78.719688 309.053253,71.993004 
	C318.959930,71.993004 328.832733,71.763206 338.680328,72.159645 
	C341.049164,72.255020 343.641266,74.063103 345.600800,75.712875 
	C351.585938,80.751907 350.350342,88.132042 343.140961,91.165993 
	C341.175537,91.993111 339.022675,92.374893 336.505859,92.979446 
z"/>
<path fill="#FBFBFC" opacity="1.000000" stroke="none" 
	d="
M322.001831,37.286018 
	C327.470734,37.468094 332.646790,36.872856 337.347778,38.098949 
	C340.610016,38.949802 343.942810,41.804119 345.936279,44.672272 
	C348.448517,48.286819 346.371948,53.138035 342.342834,55.075932 
	C340.573700,55.926838 338.585602,56.776730 336.680908,56.814308 
	C327.576172,56.993931 318.465942,56.894836 309.094666,56.894836 
	C309.094666,50.381710 309.094666,44.147076 309.094666,37.285965 
	C313.297119,37.285965 317.401672,37.285965 322.001831,37.286018 
z"/>
<path fill="#FEFEFE" opacity="1.000000" stroke="none" 
	d="
M498.536499,93.786652 
	C485.619049,89.074951 481.185455,78.950195 480.305786,66.782677 
	C478.711029,44.724514 499.175659,29.759932 519.724792,37.933117 
	C529.240784,41.718018 533.838623,49.530926 535.726257,59.241608 
	C538.432129,73.161301 532.446411,87.289917 521.333191,92.520844 
	C514.112183,95.919731 506.543640,95.900887 498.536499,93.786652 
z"/>
<path fill="#FCFCFC" opacity="1.000000" stroke="none" 
	d="
M129.680969,51.666840 
	C131.317154,47.999672 132.771011,44.667210 134.488922,40.729465 
	C139.823364,52.935600 144.901672,64.555611 150.184662,76.643990 
	C139.601517,76.643990 129.467667,76.643990 118.822128,76.643990 
	C122.431114,68.314079 125.964874,60.157810 129.680969,51.666840 
z"/>
<path fill="#FCFCFC" opacity="1.000000" stroke="none" 
	d="
M419.408508,50.566002 
	C423.278809,59.387180 426.953949,67.882484 430.794769,76.760818 
	C420.241394,76.760818 410.187439,76.760818 399.374878,76.760818 
	C404.538391,64.900345 409.577850,53.324776 415.041779,40.774181 
	C416.735016,44.616398 417.974182,47.428265 419.408508,50.566002 
z"/>
</svg>